<svg xmlns="http://www.w3.org/2000/svg" fill="none" viewBox="0 0 200 200" height="200" width="200">
  <g id="digitalmarketingillustration-3">
    <path id="Vector" fill="#EDAD6D" d="M160.876 24.2787c0 9.2628-1.581 22.8934-20.408 31.4784-20.183-8.8862-20.408-22.2156-20.408-31.4784V13.1333l20.408-8.13318 20.408 8.13318z"></path>
    <path id="Vector_2" fill="#ffffff" d="m137.531 42.4278-11.899-13.48L130 25.7096l7.456 8.3591 13.103-15.5133 4.443 3.1629z"></path>
    <path id="Vector_3" fill="#EA6F46" d="M81.1255 22.7726c1.4557 0 2.6357-1.1801 2.6357-2.6358 0-1.4556-1.18-2.6357-2.6357-2.6357s-2.6358 1.1801-2.6358 2.6357c0 1.4557 1.1801 2.6358 2.6358 2.6358"></path>
    <path id="Vector_4" fill="#EDAD6D" d="M169.611 89.7959c0 1.4308-1.205 2.6358-2.635 2.6358-1.431 0-2.636-1.205-2.636-2.6358s1.205-2.6357 2.636-2.6357c1.506 0 2.635 1.1296 2.635 2.6357"></path>
    <g id="Group">
      <g id="Group_2">
        <path id="Vector_5" fill="#33384D" d="M47.6144 51.4647c.226 0 .3766.2259.3766.4519 0 .2259-.2259.3765-.4519.3765-.2259 0-.3765-.2259-.3765-.4518.0753-.226.2259-.3766.4518-.3766"></path>
      </g>
      <g id="Group_3">
        <path id="Vector_6" fill="#33384D" d="M47.8402 35.3489c.0753 0 .2259.0753.2259.2259 0 .0753.0753.0753.0753.1506l0 .1507c-.0753.2259-.3012.3765-.5271.3012s-.3766-.3012-.3013-.5272c0-.0753.0754-.0753.0754-.1506s.0753-.0753.1506-.0753c.0753-.1506.1506-.1506.3012-.0753"></path>
      </g>
      <g id="Group_4">
        <path id="Vector_7" fill="#33384D" d="M63.1277 35.4997c.2259.0754.3012.3766.2259.6025s-.3766.3012-.5272.2259c-.2259-.0753-.3012-.3765-.2259-.6024.0753-.3013.3012-.3766.5272-.226"></path>
      </g>
      <g id="Group_5">
        <path id="Vector_8" fill="#33384D" d="M51.9823 26.9899c.1506.1506.226.3765.0753.6025-.1506.1506-.3765.2259-.6024.0753-.2259-.1507-.2259-.3766-.0753-.6025.1506-.1506.4518-.1506.6024-.0753"></path>
      </g>
      <g id="Group_6">
        <path id="Vector_9" fill="#33384D" d="M74.7252 43.2562c.1506.1506.1506.4519 0 .6025s-.4519.1506-.6025 0-.1506-.4519 0-.6025c.1506-.2259.4519-.1506.6025 0"></path>
      </g>
      <g id="Group_7">
        <path id="Vector_10" fill="#33384D" d="M52.2828 39.4158c.226 0 .3766.1506.5272.3012s.2259.3765.1506.6025c0 .2259-.1506.3765-.3012.5271s-.3766.2259-.6025.2259-.4518-.1506-.5271-.3012c-.1506-.1506-.226-.3765-.1506-.6025 0-.2259.1506-.4518.3012-.6024.1506-.0753.3765-.1506.6024-.1506"></path>
      </g>
      <g id="Group_8">
        <path id="Vector_11" fill="#33384D" d="M63.4286 30.8305c.1506.1506.3012.3012.3765.5271.0753.226 0 .4519-.0753.6025-.1506.1506-.3012.3012-.4518.3765-.2259.0753-.4519.0753-.6025-.0753-.2259-.0753-.3012-.3012-.3765-.4518-.0753-.2259-.0753-.4519.0753-.6025.1506-.2259.3012-.3012.5271-.3765.0753-.1506.3013-.0753.5272 0"></path>
      </g>
    </g>
    <g id="Group_9">
      <g id="Group_10">
        <path id="Vector_12" fill="#33384D" d="M152.592 162.543c-.151-.151-.226-.452-.075-.603.15-.15.376-.226.602-.075.151.15.226.452.075.602-.15.226-.451.226-.602.076"></path>
      </g>
      <g id="Group_11">
        <path id="Vector_13" fill="#33384D" d="M143.254 175.721c-.075-.075-.075-.226-.075-.301s0-.075.075-.151c0-.075.075-.075.075-.15.151-.151.452-.151.603.075.15.151.15.452-.076.603-.075.075-.075.075-.15.075l-.151 0c-.15-.075-.226-.075-.301-.151"></path>
      </g>
      <g id="Group_12">
        <path id="Vector_14" fill="#33384D" d="M130.753 166.835c-.075-.226 0-.452.151-.602.226-.151.452-.076.602.15.151.226.076.452-.15.603-.226.075-.528 0-.603-.151"></path>
      </g>
      <g id="Group_13">
        <path id="Vector_15" fill="#33384D" d="M135.045 180.089c-.075-.226.076-.452.302-.527s.452.075.527.226c.075.226-.075.452-.301.527-.226.151-.452 0-.528-.226"></path>
      </g>
      <g id="Group_14">
        <path id="Vector_16" fill="#33384D" d="M125.708 153.807c0-.226.15-.452.376-.452s.452.151.452.377c.075.226-.151.451-.377.451s-.451-.15-.451-.376"></path>
      </g>
      <g id="Group_15">
        <path id="Vector_17" fill="#33384D" d="M141.899 169.772c-.151-.151-.226-.377-.226-.527 0-.226.075-.377.226-.603.15-.15.376-.226.527-.301.226 0 .452 0 .602.151.151.15.302.301.302.527s-.076.452-.226.602c-.151.151-.377.302-.603.302-.226.075-.452 0-.602-.151"></path>
      </g>
      <g id="Group_16">
        <path id="Vector_18" fill="#33384D" d="M127.892 170.45c-.075-.226-.075-.452 0-.603.075-.226.226-.376.376-.452.226-.075.377-.075.603 0 .226.076.376.226.452.377.075.226.15.452.075.602-.075.226-.226.377-.452.452q-.339.1125-.678 0c-.15 0-.301-.15-.376-.376"></path>
      </g>
    </g>
    <path id="Vector_19" fill="#FFAEC1" d="M154.325 60.8028c-1.055-.8284-2.486.8283-2.636.9789.075-.1506 1.28-1.5814-.076-2.1086-.753-.2259-1.656-.0753-2.711 1.5815-1.43 2.2592-2.635 4.2925-2.635 4.2925s.376-2.1086 1.355-4.4431c.527-1.3555-.226-1.958-.602-2.0333-.904-.1506-1.582.0753-2.711 2.4851-1.205 2.4099-1.657 3.8407-1.657 3.8407s-6.1.2259-8.209 1.0543c-.828.3012-1.355 1.8827-1.732 3.5394-.376 1.8074-2.033 14.459-2.937 17.6972 3.239 1.0543 6.552 2.1086 9.79 2.937.603.1506 2.109.3012 2.109.3012s.602-12.1244.904-16.1157c.075-1.2802.903-2.4098 2.033-2.937 2.56-1.2049 6.702-2.937 7.003-3.3135.904-1.0543 2.109-3.3135 2.862-5.7987.452-1.2802.226-1.732-.15-1.9579"></path>
    <path id="Vector_20" fill="#33384D" d="m148.752 68.2581-.151 0c-.151-.0753-.226-.3012-.151-.4518.226-.4519 3.314-6.7777 3.465-7.0036.075-.1506.301-.2259.451-.1506.151.0753.226.3012.151.4518 0 .0754-3.238 6.5518-3.389 7.0036-.075.0753-.226.1506-.376.1506"></path>
    <path id="Vector_21" fill="#33384D" d="M145.664 67.4298h-.076c-.15-.0753-.301-.2259-.226-.4518l.979-3.0876c.076-.1507.226-.3013.452-.226.151.0753.301.226.226.4519l-.979 3.0876c-.075.1506-.226.2259-.376.2259"></path>
    <path id="Vector_22" fill="#FFAEC1" d="M151.688 68.6346s4.895-3.9159 5.197-4.5184c.301-.6025-1.506-2.1839-2.335-1.2049z"></path>
    <path id="Vector_23" fill="#33384D" d="m151.613 69.0864-.151 0c-.15-.0753-.226-.3012-.15-.4518l3.163-6.7024c.075-.1506.301-.2259.452-.1506.15.0753.225.3012.15.4519l-3.163 6.7023c-.075.0753-.226.1506-.301.1506"></path>
    <g id="Group_17">
      <g id="Group_18">
        <g id="Group_19">
          <g id="Group_20">
            <path id="Vector_24" fill="#33384D" fill-rule="evenodd" d="m66.6672 119.241 24.3242-.376 12.2746.301 9.941 2.786s4.217 40.139 2.937 73.048H94.079c-.8284-15.965-3.1629-46.841-3.1629-46.841s-.6024 9.64-6.9282 46.841H62.2241z" clip-rule="evenodd"></path>
          </g>
        </g>
      </g>
    </g>
    <path id="Vector_25" fill="#ffffff" d="M90.6148 154.259c-.2259 0-.3765-.226-.3765-.377l1.2802-10.317c.3012-2.56 1.3555-4.97 3.0876-6.928l1.7321-2.033c.1506-.151.3765-.151.5271 0 .1506.15.1506.376 0 .527l-1.8074 2.033c-1.5814 1.883-2.6357 4.142-2.9369 6.552l-1.2803 10.317c.0753.075-.0753.226-.2259.226"></path>
    <path id="Vector_26" fill="#EA6F46" fill-rule="evenodd" d="m132.109 69.6138-4.217 13.4046c-1.733-3.2382-8.661-12.6515-12.878-15.8898-5.347-4.1418-16.3417-4.5937-16.3417-4.5937s-9.4133-.2259-11.7479-.0753c-3.9159.3012-22.2909 1.5815-25.0772 11.7479-1.7321 6.1752-3.8407 15.3627-4.5185 21.3119-.753 6.7026-6.4764 26.5086 5.1962 41.0426 8.1332 10.016 8.2085 8.811 8.2085 8.811l7.6813-17.472-3.4641-5.723c-.0753 0 .3012-.376.3765-.376 1.3556.075 21.0107.075 20.7095 0l-.0753-.076 17.9987.226.376-19.655c.151 9.188 11.221 10.844 14.986 9.188 12.275-5.423 13.179-21.9148 18.375-36.8256z" clip-rule="evenodd"></path>
    <path id="Vector_27" fill="#FFAEC1" d="M88.7319 38.0598h2.4098l.5271 1.2049c2.1839.1506 10.4682.6778 10.4682.6778l.979 1.4308.451 10.3924c0 1.6568-.979 4.0666-5.1958 4.1419v4.7443l-3.7654 3.8407s-6.4011-3.3888-6.4764-3.8407c0-.4518.6025-22.5921.6025-22.5921"></path>
    <path id="Vector_28" fill="#EA768B" d="M98.3711 58.9952c-3.5394-.3765-5.1962-2.2592-5.8739-3.69-.1506-.3012.2259-.6778.5271-.4519 2.1839 1.5062 5.3468.979 5.3468.979l0 .979z"></path>
    <path id="Vector_29" fill="#33384D" d="M87.301 37.2313s0-3.3888 5.1962-3.3888c1.5814 0 2.7863.6025 3.9912.7531 1.6568.2259 6.5516-.7531 6.7776.8284.075.6777-.678.979-1.431 1.0543 4.293.9037 5.121 3.4641 4.293 4.5937-.753 1.0543-7.531.3012-11.6729-.979-.5271-.1506-1.0543.3012-.979.8284.1507.979.226 2.2592-.4518 3.3888-.8284 1.5815-2.4098 2.0333-2.4098 2.0333l-.3766 3.3888s.3766 3.6148-1.8826 3.916c0 0 0-1.2802-1.8827-5.0456-1.3555-2.6357-2.4098-10.0911.8284-11.3714"></path>
    <path id="Vector_30" fill="#33384D" d="M100.028 50.4856c-.1507 0-.3013-.1506-.3766-.3013 0-.2259.1506-.3765.3012-.3765.6774-.0753 1.2054-.5271 1.2804-.7531-1.13-1.9579-1.205-3.6147-1.205-3.69 0-.2259.151-.3765.376-.3765.226 0 .377.1506.377.3765 0 0 .075 1.5814 1.13 3.3888.075.0753.15.3012 0 .6025-.226.4518-1.055 1.0543-1.883 1.1296"></path>
    <path id="Vector_31" fill="#33384D" d="M100.781 44.8376c-.075 0-.226-.0753-.301-.1506-.15-.1507-.15-.3766 0-.5272.075 0 .979-.9037 2.033-.3765.151.0753.226.3012.151.4518s-.301.2259-.452.1506c-.602-.3012-1.28.226-1.28.3013.075.1506-.075.1506-.151.1506"></path>
    <path id="Vector_32" fill="#EA6F46" fill-rule="evenodd" d="m101.91 63.2125-3.0119-5.1209-3.0123 5.6481-9.2628-6.0246-3.6147 5.1962 6.3258 8.8109 5.4974-4.3678 3.6901 3.916z" clip-rule="evenodd"></path>
    <path id="Vector_33" fill="#33384D" d="M91.6689 72.2492c-.0753 0-.1506 0-.2259-.0753l-8.2085-7.832c-.1506-.1506-.1506-.3765 0-.5271.1507-.1506.3766-.1506.5272 0l7.8319 7.5307 4.2172-6.7776c.0753-.0754.1506-.1507.3013-.1507.1506 0 .2259.0753.3012.1507l4.5187 5.8739.602-7.0036c0-.2259.226-.3765.377-.3012.226 0 .376.2259.301.3766l-.678 7.9072c0 .1506-.15.3012-.226.3012-.15.0753-.301 0-.376-.1506l-4.7446-6.1752-4.2172 6.7024c-.0753.0753-.1506.1506-.3013.1506"></path>
    <path id="Vector_34" fill="#33384D" d="M97.5426 123.684c-.2259 0-.3765-.151-.3765-.377 1.732-33.1347-1.3556-58.2873-1.3556-58.5132s.1507-.3766.3013-.3766c.2259 0 .3765.1507.3765.3013 0 .2259 3.1629 25.3785 1.3555 58.6645.0753.15-.1506.301-.3012.301"></path>
    <path id="Vector_35" fill="#F5F5FA" fill-rule="evenodd" d="M101.383 84.675c0 .6778.452 1.2802.904 1.2802.527 0 .904-.6024.904-1.2802s-.452-1.2802-.904-1.2802-.904.6024-.904 1.2802" clip-rule="evenodd"></path>
    <path id="Vector_36" fill="#F5F5FA" fill-rule="evenodd" d="M100.179 114.421c0 .678.452 1.28.903 1.28.528 0 .904-.602.904-1.28s-.452-1.28-.904-1.28c-.527-.075-.903.527-.903 1.28" clip-rule="evenodd"></path>
    <path id="Vector_37" fill="#F5F5FA" fill-rule="evenodd" d="M101.082 98.7573c0 .6777.452 1.2797.904 1.2797.527 0 .903-.602.903-1.2797 0-.6778-.451-1.2802-.903-1.2802s-.904.5271-.904 1.2802" clip-rule="evenodd"></path>
    <path id="Vector_38" fill="#33384D" d="M114.487 106.062c-.226 0-.377-.15-.377-.376 0-.151.377-16.4173-.753-27.2615 0-.2259.151-.3765.302-.3765.226 0 .376.1506.376.3012 1.13 10.8442.753 27.1858.753 27.3368 0 .226-.15.376-.301.376"></path>
    <path id="Vector_39" fill="#33384D" d="M75.5533 122.479c-.2259 0-.3765-.151-.3765-.376 0-.151.6024-17.773.6024-43.3773 0-.226.1506-.3766.3766-.3766.2259 0 .3765.1506.3765.3766 0 25.6043-.6025 43.2263-.6025 43.3773-.0753.225-.2259.376-.3765.376"></path>
    <g id="Group_21">
      <path id="Vector_40" fill="#33384D" d="M95.9611 45.5154c-.0753 0-.1506 0-.1506-.0753-.1506-.0753-.2259-.3012-.1506-.4518.3012-.5272 1.2802-1.4308 2.8617-.6778.1506.0753.2259.3013.1506.4519s-.3012.2259-.4518.1506c-1.2803-.6025-1.8827.3012-1.958.3765-.0753.1506-.1506.2259-.3013.2259"></path>
      <path id="Vector_41" fill="#33384D" d="m96.7896 46.5696 0-.6025c0-.1506.1506-.3012.3012-.3012h.0753c.0753 0 .2259.0753.2259.1506l0 .0753c0 .1506.0753.3766.0753.6025s.0753.3765-.0753.5271c-.0753.0753-.3012.1506-.3765.0753-.2259-.1506-.1506-.3012-.2259-.5271"></path>
      <path id="Vector_42" fill="#33384D" d="m101.835 46.3434 0-.6025c0-.1506.151-.3012.302-.3012h.075c.075 0 .226.0753.226.1506l0 .0753c0 .1506.075.3766.075.6025s.076.3765-.075.5271c-.075.0753-.301.1506-.377.0753-.226-.1506-.226-.3012-.226-.5271"></path>
    </g>
    <path id="Vector_43" fill="#33384D" d="M98.3708 52.4434c-.2259 0-.3765-.0753-.6024-.1506-.9037-.4518-.8284-1.5061-.8284-1.5814 0-.2259.2259-.3012.3765-.3012.226 0 .3766.2259.3013.3765 0 0-.0753.6778.3765.8284.6778.3012 1.2049-.4519 1.2049-.5272.0753-.1506.3013-.2259.4519-.1506s.2259.3012.1506.4518c-.1506.4519-.7531 1.0543-1.4309 1.0543"></path>
    <path id="Vector_44" fill="#ffffff" d="m70.0553 147.632-.1507 0c-.1506-.075-.3012-.301-.2259-.452 3.4641-8.133 8.585-20.559 8.7356-21.237 0-.225.226-.301.3766-.301.2259 0 .3012.226.3012.377-.0753.678-7.3048 17.998-8.8109 21.462 0 .076-.1506.151-.2259.151"></path>
    <path id="Vector_45" fill="#33384D" d="M76.457 124.211c-.1506 0-.2259-.075-.3012-.15l-8.8109-13.706c-.0753-.151-.0753-.377.0753-.527.1506-.076.3765-.076.5271.075l8.811 13.706c.0753.15.0753.376-.0753.527-.0753.075-.1507.075-.226.075"></path>
    <path id="Vector_46" fill="#33384D" d="m124.653 91.6032-.151 0c-.15-.0753-.301-.3012-.226-.4519l3.239-8.1331c.075-.1506.301-.3013.451-.226.151.0754.302.3013.226.4519l-3.238 8.1332c0 .0753-.15.2259-.301.2259"></path>
    <g id="Group_22">
      <path id="Vector_47" fill="#FFAEC1" d="M91.3676 49.7326c-.8284.5272-2.1086.2259-2.8617-.753-.753-.979-.7531-2.184.0753-2.7864.8284-.5272 2.1086-.2259 2.8617.7531s.7531 2.2592-.0753 2.7863"></path>
      <path id="Vector_48" fill="#33384D" d="M91.292 49.2808c-.1506 0-.3765-.1507-.3765-.3013-.0753-1.5814-1.8827-1.732-1.958-1.732-.2259 0-.3013-.226-.3013-.3766 0-.2259.226-.3012.3766-.3012.8284.0753 2.4851.6778 2.6357 2.4098 0 .1506-.1506.3013-.3765.3013"></path>
    </g>
    <path id="Vector_49" fill="#33384D" d="M123.071 85.5032c-.15 0-.225-.0753-.301-.1506-.075-.1506 0-.3765.151-.4518l3.238-1.8074c.151-.0753.377 0 .452.1506s0 .3765-.151.4518l-3.238 1.8074z"></path>
    <path id="Vector_50" fill="#73C0AE" d="M45.5054 134.302c-.4518 0-.9037-.301-1.1296-.753-.9037-2.334-3.2382-2.786-5.874-3.313-2.9369-.603-6.1751-1.281-7.606-4.745-1.4308-3.464.4519-6.25 2.1086-8.735 1.5062-2.26 2.8617-4.142 1.8827-6.477-.2259-.602.0753-1.28.6778-1.506.6024-.226 1.2802.075 1.5061.678 1.4308 3.464-.4518 6.25-2.1086 8.736-1.5061 2.259-2.8617 4.141-1.8827 6.476.9037 2.334 3.2382 2.786 5.874 3.313 2.937.603 6.1752 1.281 7.606 4.745.2259.602-.0753 1.28-.6778 1.506-.0753.075-.2259.075-.3765.075"></path>
    <g id="Group_23">
      <g id="Clip path group">
        <mask id="mask0_515_6625" width="14" height="27" x="148" y="118" maskUnits="userSpaceOnUse" style="mask-type:luminance">
          <g id="SVGID_00000123414066587053906790000003217414589703852438_">
            <path id="Vector_51" fill="#ffffff" d="M148.525 144.568h13.404v-25.981h-13.404z"></path>
          </g>
        </mask>
        <g mask="url(#mask0_515_6625)">
          <path id="Vector_52" fill="#73C0AE" d="M162.005 118.638h-13.404v25.981h13.404z"></path>
        </g>
      </g>
    </g>
    <path id="Vector_53" fill="#33384D" d="M155.228 131.968h-19.505c-.226 0-.376-.151-.376-.377s.15-.376.376-.376h19.505c.226 0 .376.15.376.376s-.15.377-.376.377"></path>
  </g>
</svg>