<svg xmlns="http://www.w3.org/2000/svg" fill="none" viewBox="0 0 24 24" id="Browse-Activity-Fill--Streamline-Outlined-Fill-Material" height="24" width="24">
  <desc>
    Browse Activity Fill Streamline Icon: https://streamlinehq.com
  </desc>
  <path fill="#000000" d="M1 21v-1.5h22v1.5H1Zm2.5 -3c-0.4 0 -0.75 -0.15 -1.05 -0.45 -0.3 -0.3 -0.45 -0.65 -0.45 -1.05V10.75h5.525l1.8 3.6c0.06665 0.13335 0.1625 0.23335 0.2875 0.3 0.125 0.06665 0.25415 0.1 0.3875 0.1 0.13335 0 0.2625 -0.03335 0.3875 -0.1 0.125 -0.06665 0.22085 -0.16665 0.2875 -0.3l3.275 -5.725 0.85 1.725c0.06665 0.13335 0.1625 0.23335 0.2875 0.3 0.125 0.06665 0.25415 0.1 0.3875 0.1H22V16.5c0 0.4 -0.15 0.75 -0.45 1.05 -0.3 0.3 -0.65 0.45 -1.05 0.45H3.5Zm6.55 -5.55 -1.375 -2.8c-0.06665 -0.13335 -0.1625 -0.23335 -0.2875 -0.3 -0.125 -0.06665 -0.25415 -0.1 -0.3875 -0.1H2V4.5c0 -0.4 0.15 -0.75 0.45 -1.05C2.75 3.15 3.1 3 3.5 3h17c0.4 0 0.75 0.15 1.05 0.45 0.3 0.3 0.45 0.65 0.45 1.05v4.75H15.95l-1.275 -2.575c-0.06665 -0.13335 -0.1625 -0.22915 -0.2875 -0.2875 -0.125 -0.05835 -0.25415 -0.0875 -0.3875 -0.0875 -0.13335 0 -0.2625 0.02915 -0.3875 0.0875s-0.22085 0.15415 -0.2875 0.2875L10.05 12.45Z" stroke-width="0.5"></path>
</svg>