<svg xmlns="http://www.w3.org/2000/svg" fill="none" viewBox="0 0 24 24" id="Phone-Action-Data-Transfer-1--Streamline-Ultimate" height="24" width="24">
  <desc>
    Phone Action Data Transfer 1 Streamline Icon: https://streamlinehq.com
  </desc>
  <path stroke="#000000" stroke-linecap="round" stroke-linejoin="round" d="M15.5 19.5h-13" stroke-width="1"></path>
  <path stroke="#000000" stroke-linecap="round" stroke-linejoin="round" d="M15.5 12v9.5c0 0.5304 -0.2107 1.0391 -0.5858 1.4142S14.0304 23.5 13.5 23.5h-9c-0.53043 0 -1.03914 -0.2107 -1.41421 -0.5858C2.71071 22.5391 2.5 22.0304 2.5 21.5v-19c0 -0.53043 0.21071 -1.03914 0.58579 -1.41421C3.46086 0.710714 3.96957 0.5 4.5 0.5H9" stroke-width="1"></path>
  <path stroke="#000000" stroke-linecap="round" stroke-linejoin="round" d="m9.5 6.5 3 3 3 -3" stroke-width="1"></path>
  <path stroke="#000000" stroke-linecap="round" stroke-linejoin="round" d="M12.5 9.5v-9" stroke-width="1"></path>
  <path stroke="#000000" stroke-linecap="round" stroke-linejoin="round" d="m15.5 3.5 3 -3 3 3" stroke-width="1"></path>
  <path stroke="#000000" stroke-linecap="round" stroke-linejoin="round" d="M18.5 0.5v9" stroke-width="1"></path>
  <path stroke="#000000" d="M9 21.6663c-0.13807 0 -0.25 -0.112 -0.25 -0.25 0 -0.1381 0.11193 -0.25 0.25 -0.25" stroke-width="1"></path>
  <path stroke="#000000" d="M9 21.6663c0.13807 0 0.25 -0.112 0.25 -0.25 0 -0.1381 -0.11193 -0.25 -0.25 -0.25" stroke-width="1"></path>
</svg>