<svg xmlns="http://www.w3.org/2000/svg" viewBox="0 0 24 24" fill="none" stroke="#000000" stroke-linecap="round" stroke-linejoin="round" id="Tag-Starred--Streamline-Tabler" height="24" width="24">
  <desc>
    Tag Starred Streamline Icon: https://streamlinehq.com
  </desc>
  <path d="M6.5 7.5a1 1 0 1 0 2 0 1 1 0 1 0 -2 0" stroke-width="2"></path>
  <path d="M3 6v5.172a2 2 0 0 0 0.586 1.414l7.71 7.71a2.41 2.41 0 0 0 3.408 0l5.592 -5.592a2.41 2.41 0 0 0 0 -3.408l-7.71 -7.71A2 2 0 0 0 11.172 3H6a3 3 0 0 0 -3 3z" stroke-width="2"></path>
  <path d="M12.5 13.847 11 15l0.532 -1.857L10 12h1.902l0.598 -1.8 0.598 1.8H15l-1.532 1.143L14 15z" stroke-width="2"></path>
</svg>