<svg xmlns="http://www.w3.org/2000/svg" viewBox="0 0 24 24" fill="none" stroke="#000000" stroke-linecap="round" stroke-linejoin="round" id="Receipt-Dollar--Streamline-Tabler" height="24" width="24">
  <desc>
    Receipt Dollar Streamline Icon: https://streamlinehq.com
  </desc>
  <path d="M5 21V5a2 2 0 0 1 2 -2h10a2 2 0 0 1 2 2v16l-3 -2 -2 2 -2 -2 -2 2 -2 -2 -3 2" stroke-width="2"></path>
  <path d="M14.8 8A2 2 0 0 0 13 7h-2a2 2 0 1 0 0 4h2a2 2 0 1 1 0 4h-2a2 2 0 0 1 -1.8 -1" stroke-width="2"></path>
  <path d="M12 6v10" stroke-width="2"></path>
</svg>