<svg xmlns="http://www.w3.org/2000/svg" fill="none" viewBox="0 0 16 16" id="Btc--Streamline-Cryptocurrency" height="16" width="16">
  <desc>
    Btc Streamline Icon: https://streamlinehq.com
  </desc>
  <path fill="#f7931a" d="M8 16c4.4183 0 8 -3.5817 8 -8 0 -4.41828 -3.5817 -8 -8 -8C3.58172 0 0 3.58172 0 8c0 4.4183 3.58172 8 8 8Z" stroke-width="0.5"></path>
  <path fill="#ffffff" d="M11.5945 7.01c0.157 -1.048 -0.6415 -1.6115 -1.7325 -1.9875l0.354 -1.42 -0.864 -0.215 -0.345 1.3825c-0.227 -0.057 -0.46 -0.11 -0.6925 -0.163l0.3475 -1.3915L7.798 3l-0.354 1.4195c-0.188 -0.043 -0.373 -0.085 -0.552 -0.13l0.001 -0.0045 -1.192 -0.2975 -0.23 0.923s0.6415 0.147 0.628 0.156c0.35 0.0875 0.413 0.319 0.4025 0.503l-0.403 1.6175c0.024 0.006 0.055 0.015 0.09 0.0285l-0.0915 -0.0225 -0.565 2.266c-0.043 0.106 -0.1515 0.2655 -0.3965 0.205 0.009 0.0125 -0.62801 -0.1565 -0.62801 -0.1565l-0.429 0.989 1.12501 0.2805c0.209 0.0525 0.414 0.1075 0.6155 0.159l-0.3575 1.436 0.8635 0.215 0.354 -1.42c0.236 0.0635 0.465 0.1225 0.689 0.1785l-0.353 1.414 0.864 0.215 0.3575 -1.433c1.474 0.279 2.582 0.1665 3.0485 -1.1665 0.376 -1.073 -0.0185 -1.6925 -0.794 -2.096 0.565 -0.13 0.99 -0.5015 1.1035 -1.269Zm-1.975 2.769c-0.2665 1.0735 -2.074 0.493 -2.66 0.3475l0.475 -1.9025c0.586 0.1465 2.4645 0.436 2.185 1.555Zm0.2675 -2.7845c-0.2435 0.9765 -1.7475 0.48 -2.235 0.3585l0.43 -1.725c0.4875 0.1215 2.059 0.348 1.805 1.3665Z" stroke-width="0.5"></path>
</svg>