<svg xmlns="http://www.w3.org/2000/svg" fill="none" viewBox="0 0 24 24" height="24" width="24">
  <g id="woman">
    <path id="Union" fill="#000000" d="M12 7c0.4332 0 0.8249 0.11641 1.1748 0.34961 0.35 0.23332 0.6087 0.55024 0.7754 0.95019l2.5078 6.332c0.2599 0.6564 -0.2237 1.3682 -0.9297 1.3682H14v5c0 0.5523 -0.4477 1 -1 1h-2c-0.5523 0 -1 -0.4477 -1 -1v-5H8.47168c-0.706 0 -1.18963 -0.7118 -0.92969 -1.3682l2.50781 -6.332c0.1667 -0.39995 0.4254 -0.71688 0.7754 -0.95019C11.1751 7.11642 11.5668 7 12 7m0 -5c0.55 0 1.0204 0.19623 1.4121 0.58789C13.8038 2.97956 14 3.45 14 4s-0.1962 1.02044 -0.5879 1.41211C13.0204 5.80377 12.55 6 12 6s-1.0204 -0.19623 -1.4121 -0.58789C10.1962 5.02044 10 4.55 10 4s0.1962 -1.02044 0.5879 -1.41211C10.9796 2.19623 11.45 2 12 2" stroke-width="1"></path>
  </g>
</svg>