<svg xmlns="http://www.w3.org/2000/svg" viewBox="0 0 24 24" fill="none" stroke="#000000" stroke-linecap="round" stroke-linejoin="round" id="Gift-Card--Streamline-Tabler" height="24" width="24">
  <desc>
    Gift Card Streamline Icon: https://streamlinehq.com
  </desc>
  <path d="M3 8a3 3 0 0 1 3 -3h12a3 3 0 0 1 3 3v8a3 3 0 0 1 -3 3H6a3 3 0 0 1 -3 -3z" stroke-width="2"></path>
  <path d="m7 16 3 -3 3 3" stroke-width="2"></path>
  <path d="M8 13c-0.789 0 -2 -0.672 -2 -1.5S6.711 10 7.5 10c1.128 -0.02 2.077 1.17 2.5 3 0.423 -1.83 1.372 -3.02 2.5 -3 0.789 0 1.5 0.672 1.5 1.5S12.789 13 12 13H8z" stroke-width="2"></path>
</svg>