<svg viewBox="0 0 24 24" fill="none" xmlns="http://www.w3.org/2000/svg" id="Login-2--Streamline-Solar-Broken" height="24" width="24">
  <desc>
    Login 2 Streamline Icon: https://streamlinehq.com
  </desc>
  <path d="m2.00098 11.999 14.00002 0m0 0 -3.5 -2.99998m3.5 2.99998 -3.5 3" stroke="#000000" stroke-linecap="round" stroke-linejoin="round" stroke-width="1.5"></path>
  <path d="M9.00195 7c0.01211 -2.17503 0.10856 -3.35294 0.87694 -4.12132C10.7576 2 12.1718 2 15.0002 2l1 0c2.8284 0 4.2427 0 5.1213 0.87868 0.8787 0.87868 0.8787 2.29289 0.8787 5.12132l0 8c0 2.8284 0 4.2426 -0.8787 5.1213 -0.7684 0.7684 -1.9463 0.8649 -4.1215 0.877M9.00195 17c0.01211 2.175 0.10856 3.3529 0.87694 4.1213 0.64131 0.6413 1.56781 0.8146 3.12111 0.8614" stroke="#000000" stroke-linecap="round" stroke-width="1.5"></path>
</svg>