<svg xmlns="http://www.w3.org/2000/svg" fill="none" viewBox="0 0 24 24" height="24" width="24">
  <g id="man-3">
    <path id="Union" fill="#000000" d="M14 7.50015c0.5498 0 1.0205 0.19553 1.4121 0.58692 0.3917 0.39166 0.5879 0.86308 0.5879 1.41308v4.50005c-0.0001 0.5522 -0.4478 1 -1 1h-1v6c-0.0001 0.5522 -0.4478 1 -1 1h-2c-0.5522 0 -0.9999 -0.4478 -1 -1v-6H9c-0.55223 0 -0.99992 -0.4478 -1 -1V9.50015c0 -0.55 0.19622 -1.02142 0.58789 -1.41308 0.39159 -0.39139 0.8623 -0.58692 1.41211 -0.58692zm-2.707 -5.29297c0.3905 -0.39052 1.0235 -0.39052 1.414 0l1.086 1.08594c0.3903 0.39054 0.3904 1.02359 0 1.41406l-1.086 1.08594c-0.3905 0.39032 -1.0235 0.39033 -1.414 0l-1.086 -1.08594c-0.39044 -0.39047 -0.39034 -1.02352 0 -1.41406z" stroke-width="1"></path>
  </g>
</svg>