<svg xmlns="http://www.w3.org/2000/svg" fill="none" viewBox="0 0 24 24" height="24" width="24">
  <path fill="#000000" d="M2 22h22v2H0V0h2zm20 -12c1.1046 0 2 0.8954 2 2s-0.8954 2 -2 2c-0.1501 0 -0.2959 -0.0185 -0.4365 -0.0498l-2.1836 2.373c0.0762 0.2117 0.1201 0.4389 0.1201 0.6768 0 1.1046 -0.8954 2 -2 2s-2 -0.8954 -2 -2l0 -0.0088 -3.3486 -2.0928c-0.3059 0.1898 -0.6654 0.3018 -1.0518 0.3018 -0.315 0 -0.6119 -0.0753 -0.8769 -0.2051l-4.56743 3.961 -1.31054 -1.5118 4.76074 -4.1269c-0.00225 -0.0388 -0.00586 -0.0778 -0.00586 -0.1172 0 -1.1045 0.89554 -1.9999 1.99999 -2 1.0814 0 1.9596 0.8582 1.9961 1.9307l3.4131 2.1328c0.2923 -0.1672 0.6303 -0.2637 0.9912 -0.2637 0.1194 0 0.236 0.0122 0.3496 0.0322l2.2412 -2.4355C20.032 12.4082 20 12.2079 20 12c0 -1.1046 0.8954 -2 2 -2m0 -10c1.1046 0 2 0.89543 2 2s-0.8954 2 -2 2c-0.0844 0 -0.1674 -0.00742 -0.249 -0.01758l-2.7617 2.82227C18.9955 6.86899 19 6.93406 19 7c0 1.10457 -0.8954 2 -2 2 -0.9995 0 -1.8251 -0.73356 -1.9736 -1.69141l-3.4561 -1.07421C11.2041 6.6996 10.638 7 10 7c-0.16022 0 -0.31552 -0.02105 -0.46484 -0.05664L5.79297 11.8105 5 11.2002l-0.79297 -0.6094L8.0791 5.55566C8.02814 5.37918 8 5.1929 8 5c0 -1.10457 0.89543 -2 2 -2 0.8299 0 1.541 0.50574 1.8438 1.22559L15.75 5.43945C16.0925 5.16479 16.5268 5 17 5c0.2826 0 0.5512 0.05931 0.7949 0.16504l2.3545 -2.40625C20.0534 2.52476 20 2.26864 20 2c0 -1.10457 0.8954 -2 2 -2" stroke-width="1"></path>
</svg>