<svg xmlns="http://www.w3.org/2000/svg" fill="none" viewBox="0 0 24 24" height="24" width="24">
  <g id="wc">
    <path id="Union" fill="#000000" d="M9 7c0.55 0 1.0204 0.19622 1.4121 0.58789S11 8.45 11 9v5c0 0.5523 -0.4477 1 -1 1H9v6c0 0.5523 -0.44772 1 -1 1H6c-0.55228 0 -1 -0.4477 -1 -1v-6H4c-0.55228 0 -1 -0.4477 -1 -1V9c0 -0.55 0.19622 -1.02044 0.58789 -1.41211S4.45 7 5 7zm7.5 0c0.4332 0 0.8249 0.11641 1.1748 0.34961 0.35 0.23332 0.6087 0.55024 0.7754 0.95019l2.5078 6.332c0.2599 0.6564 -0.2237 1.3682 -0.9297 1.3682H18.5v5c0 0.5523 -0.4477 1 -1 1h-2c-0.5523 0 -1 -0.4477 -1 -1v-5h-1.5283c-0.706 0 -1.1896 -0.7118 -0.9297 -1.3682l2.5078 -6.332c0.1667 -0.39995 0.4254 -0.71688 0.7754 -0.95019C15.6751 7.11642 16.0668 7 16.5 7M7 2c0.55 0 1.02044 0.19622 1.41211 0.58789S9 3.45 9 4s-0.19622 1.02044 -0.58789 1.41211S7.55 6 7 6s-1.02044 -0.19622 -1.41211 -0.58789S5 4.55 5 4s0.19622 -1.02044 0.58789 -1.41211S6.45 2 7 2m9.5 0c0.55 0 1.0204 0.19623 1.4121 0.58789C18.3038 2.97956 18.5 3.45 18.5 4s-0.1962 1.02044 -0.5879 1.41211C17.5204 5.80377 17.05 6 16.5 6s-1.0204 -0.19623 -1.4121 -0.58789C14.6962 5.02044 14.5 4.55 14.5 4s0.1962 -1.02044 0.5879 -1.41211C15.4796 2.19623 15.95 2 16.5 2" stroke-width="1"></path>
  </g>
</svg>