<svg xmlns="http://www.w3.org/2000/svg" fill="none" viewBox="0 0 24 24" height="24" width="24">
  <path fill="#000000" d="M3 0c-0.44637 0.0000902802 -0.83925 0.296386 -0.96191 0.725586L0.0380859 7.72559c-0.0259108 0.09084 -0.03691914 0.18241 -0.037109338 0.27246C0.000938047 8.0016342 8.8e-9 8.0052 0 8.00879c0 1.40998 0.785553 2.70351 2 3.34961V23c0 0.5522 0.44781 0.9999 1 1h18c0.5522 -0.0001 1 -0.4478 1 -1V11.3535c1.1733 -0.6236 2 -1.85879 2 -3.34471 0 -0.00554 0.0001 -0.01108 0 -0.0166 -0.0007 -0.08816 -0.0127 -0.17773 -0.0381 -0.2666l-2 -7.000004C21.8393 0.296396 21.4464 0.000113884 21 0zm8 22H6v-8h5zm8 -4h-5v-4h5zm2.9951 -9.87988c-0.0566 0.9682 -0.846 1.67076 -1.7451 1.6709 -0.9851 -0.00015 -1.75 -0.80963 -1.75 -1.78223 -0.0001 -0.55214 -0.4479 -0.99986 -1 -1 -0.5522 0.00011 -0.9999 0.44784 -1 1 0 1.02519 -0.8168 1.78209 -1.75 1.78223 -0.9851 -0.00015 -1.75 -0.80963 -1.75 -1.78223 -0.0001 -0.55214 -0.4479 -0.99986 -1 -1 -0.5522 0.00011 -0.9999 0.44784 -1 1 0 1.02519 -0.8168 1.78209 -1.75 1.78223 -0.98513 -0.00015 -1.75 -0.80963 -1.75 -1.78223 -0.00007 -0.55214 -0.44787 -0.99986 -1 -1 -0.55215 0.00011 -0.99993 0.44784 -1 1 0 1.02519 -0.81685 1.78209 -1.75 1.78223 -0.94693 -0.00014 -1.68793 -0.74812 -1.74414 -1.66993L3.75488 2H20.2451z" stroke-width="1"></path>
</svg>