<svg xmlns="http://www.w3.org/2000/svg" viewBox="0 0 24 24" fill="none" stroke="#000000" stroke-linecap="round" stroke-linejoin="round" id="Headset--Streamline-Tabler" height="24" width="24">
  <desc>
    Headset Streamline Icon: https://streamlinehq.com
  </desc>
  <path d="M4 14v-3a8 8 0 1 1 16 0v3" stroke-width="2"></path>
  <path d="M18 19c0 1.657 -2.686 3 -6 3" stroke-width="2"></path>
  <path d="M4 14a2 2 0 0 1 2 -2h1a2 2 0 0 1 2 2v3a2 2 0 0 1 -2 2H6a2 2 0 0 1 -2 -2v-3z" stroke-width="2"></path>
  <path d="M15 14a2 2 0 0 1 2 -2h1a2 2 0 0 1 2 2v3a2 2 0 0 1 -2 2h-1a2 2 0 0 1 -2 -2v-3z" stroke-width="2"></path>
</svg>