<svg xmlns="http://www.w3.org/2000/svg" fill="none" viewBox="0 0 24 24" height="24" width="24">
  <path fill="#000000" d="M12 1c4.4523 0 8 3.54772 8 8v0.10059c2.2766 0.46587 4 2.48931 4 4.89941 0 2.4402 -1.7671 4.4819 -4.0859 4.9141C19.4819 21.2329 17.4402 23 15 23h-1v-2h1c1.6477 0 3 -1.3523 3 -3V9c0 -3.34772 -2.6523 -6 -6 -6 -3.34772 0 -6 2.65228 -6 6v9c0 0.5523 -0.44772 1 -1 1 -2.75228 0 -5 -2.2477 -5 -5 0 -2.4101 1.72342 -4.43354 4 -4.89941V9c0 -4.45228 3.54772 -8 8 -8" stroke-width="1"></path>
</svg>