<svg xmlns="http://www.w3.org/2000/svg" fill="none" viewBox="0 0 16 16" id="Usd--Streamline-Cryptocurrency" height="16" width="16">
  <desc>
    Usd Streamline Icon: https://streamlinehq.com
  </desc>
  <path fill="#6cde07" d="M8 16c4.4183 0 8 -3.5817 8 -8 0 -4.41828 -3.5817 -8 -8 -8C3.58172 0 0 3.58172 0 8c0 4.4183 3.58172 8 8 8Z" stroke-width="0.5"></path>
  <path fill="#ffffff" fill-rule="evenodd" d="M11.25 9.577c0 1.285 -1.043 2.138 -2.583 2.2665V13h-1.055v-1.168c-1.04165 -0.11745 -2.03135 -0.51755 -2.862 -1.157l0.776 -1.063c0.6915 0.5375 1.346 0.888 2.1345 1.005v-2.29c-1.7705 -0.444 -2.595 -1.0865 -2.595 -2.4065 0 -1.2615 1.0305 -2.126 2.5465 -2.243V3h1.055v0.701c0.82455 0.09159 1.6107 0.39777 2.28 0.888l-0.6795 1.098c-0.5335 -0.3855 -1.079 -0.631 -1.649 -0.7475v2.2195c1.8435 0.444 2.6315 1.1565 2.6315 2.418Zm-3.59 -2.6635V4.8575c-0.7635 0.0585 -1.1635 0.4675 -1.1635 0.9815 0 0.49 0.23 0.806 1.164 1.075l-0.0005 -0.0005Zm2.159 2.745c0 -0.525 -0.255 -0.8405 -1.2005 -1.1095v2.115c0.764 -0.059 1.2005 -0.4445 1.2005 -1.005v-0.0005Z" clip-rule="evenodd" stroke-width="0.5"></path>
</svg>