<svg xmlns="http://www.w3.org/2000/svg" fill="none" viewBox="0 0 24 24" height="24" width="24">
  <path fill="#000000" d="M16 16.5c0.8284 0 1.5 -0.6716 1.5 -1.5s-0.6716 -1.5 -1.5 -1.5 -1.5 0.6716 -1.5 1.5 0.6716 1.5 1.5 1.5" stroke-width="1"></path>
  <path fill="#000000" fill-rule="evenodd" d="M15.7041 0.0447311c0.2313 -0.0716753 0.482 -0.0571144 0.7051 0.0429688 0.255 0.1145191 0.4506 0.3305361 0.539 0.5957031l1.7725 5.316407H20c0.5523 0 1 0.44771 1 1v3h2c0.5523 0 1 0.44769 1 0.99999v8c0 0.5523 -0.4477 1 -1 1h-2v3c0 0.5523 -0.4477 1 -1 1H1c-0.552285 0 -1 -0.4477 -1 -1V6.99981c0 -0.55229 0.447715 -1 1 -1h0.7959L15.6064 0.0808639zM11.4141 14.9998l3 3H22v-6h-7.5859zM6.87109 5.99981h9.74121l-1.2178 -3.65332z" clip-rule="evenodd" stroke-width="1"></path>
</svg>