<svg xmlns="http://www.w3.org/2000/svg" viewBox="0 0 24 24" fill="none" stroke="#000000" stroke-linecap="round" stroke-linejoin="round" id="Gift--Streamline-Tabler" height="24" width="24">
  <desc>
    Gift Streamline Icon: https://streamlinehq.com
  </desc>
  <path d="M3 9a1 1 0 0 1 1 -1h16a1 1 0 0 1 1 1v2a1 1 0 0 1 -1 1H4a1 1 0 0 1 -1 -1z" stroke-width="2"></path>
  <path d="m12 8 0 13" stroke-width="2"></path>
  <path d="M19 12v7a2 2 0 0 1 -2 2H7a2 2 0 0 1 -2 -2v-7" stroke-width="2"></path>
  <path d="M7.5 8a2.5 2.5 0 0 1 0 -5A4.8 8 0 0 1 12 8a4.8 8 0 0 1 4.5 -5 2.5 2.5 0 0 1 0 5" stroke-width="2"></path>
</svg>